<?xml version="1.0" encoding="utf-8"?>
<!-- Generator: Adobe Illustrator 18.0.0, SVG Export Plug-In . SVG Version: 6.00 Build 0)  -->
<!DOCTYPE svg PUBLIC "-//W3C//DTD SVG 1.1//EN" "http://www.w3.org/Graphics/SVG/1.1/DTD/svg11.dtd">
<svg version="1.1" id="Layer_1" xmlns="http://www.w3.org/2000/svg" xmlns:xlink="http://www.w3.org/1999/xlink" x="0px" y="0px"
	 viewBox="0 0 16 16" enable-background="new 0 0 16 16" xml:space="preserve">
<path fill="#3D6480" d="M8,14.4c2.3,0,4.4-1.3,5.5-3.1l1.4,0.8c-1.4,2.4-4,4-6.9,4c-2.1,0-4-0.8-5.4-2.1l-1.9,1.5v-4.1v-0.4h1.9h2.6
	l-1.6,1.6C4.9,13.8,6.3,14.4,8,14.4z"/>
<path fill="#3D6480" d="M8.1,1.6C5.6,1.6,3.3,3,2.3,5.2L0.8,4.4C2.2,1.7,5-0.1,8.1,0c2.1,0,4,0.9,5.4,2.2l1.9-1.5l-0.1,4.1l0,0.4
	l-1.9,0l-2.6,0l1.7-1.6C11.2,2.3,9.7,1.7,8.1,1.6z"/>
</svg>
