<?xml version="1.0" encoding="utf-8"?>
<!-- Generator: Adobe Illustrator 18.0.0, SVG Export Plug-In . SVG Version: 6.00 Build 0)  -->
<!DOCTYPE svg PUBLIC "-//W3C//DTD SVG 1.1//EN" "http://www.w3.org/Graphics/SVG/1.1/DTD/svg11.dtd">
<svg version="1.1" id="Layer_1" xmlns="http://www.w3.org/2000/svg" xmlns:xlink="http://www.w3.org/1999/xlink" x="0px" y="0px"
	 viewBox="0 0 16 16" enable-background="new 0 0 16 16" xml:space="preserve">
<g id="circle_x5F_info_1_">
	<path fill="#3D6480" d="M8,0C3.6,0,0,3.6,0,8s3.6,8,8,8s8-3.6,8-8S12.4,0,8,0z M7.3,3.8c0-0.2,0.1-0.3,0.3-0.3H9
		c0.2,0,0.3,0.1,0.3,0.3v1.3c0,0.2-0.1,0.3-0.3,0.3H7.7c-0.2,0-0.3-0.1-0.3-0.3L7.3,3.8L7.3,3.8z M10.6,12.2c0,0.2-0.1,0.3-0.3,0.3
		H6.4c-0.2,0-0.3-0.1-0.3-0.3v-1.3c0-0.2,0.1-0.3,0.3-0.3h1V8h-1C6.2,8,6,7.9,6,7.7V6.4C6,6.2,6.2,6,6.4,6H9c0.2,0,0.3,0.1,0.3,0.3
		v4.2h1c0.2,0,0.3,0.1,0.3,0.3V12.2z"/>
</g>
</svg>
