<?xml version="1.0" encoding="utf-8"?>
<!-- Generator: Adobe Illustrator 16.0.0, SVG Export Plug-In . SVG Version: 6.00 Build 0)  -->
<!DOCTYPE svg PUBLIC "-//W3C//DTD SVG 1.1//EN" "http://www.w3.org/Graphics/SVG/1.1/DTD/svg11.dtd">
<svg version="1.1" id="Layer_1" xmlns="http://www.w3.org/2000/svg" xmlns:xlink="http://www.w3.org/1999/xlink" x="0px" y="0px"
	 width="18px" height="18px" viewBox="1 1 18 18" enable-background="new 1 1 18 18" xml:space="preserve">
<g id="circle_x5F_info_1_">
	<path fill="#3D6480" d="M10,1c-4.95,0-9,4.05-9,9s4.05,9,9,9s9-4.05,9-9S14.95,1,10,1z M9.213,5.275
		c0-0.226,0.112-0.338,0.337-0.338h1.575c0.225,0,0.338,0.112,0.338,0.338v1.462c0,0.226-0.113,0.338-0.338,0.338H9.662
		c-0.225,0-0.337-0.112-0.337-0.338L9.213,5.275L9.213,5.275z M12.925,14.725c0,0.226-0.112,0.338-0.337,0.338H8.2
		c-0.226,0-0.338-0.112-0.338-0.338v-1.462c0-0.226,0.112-0.338,0.338-0.338h1.125V10H8.2c-0.226,0-0.45-0.112-0.45-0.338V8.2
		c0-0.226,0.225-0.45,0.45-0.45h2.925c0.225,0,0.338,0.112,0.338,0.338v4.725h1.125c0.225,0,0.337,0.112,0.337,0.338V14.725z"/>
</g>
</svg>
