<?xml version="1.0" encoding="utf-8"?>
<!-- Generator: Adobe Illustrator 18.0.0, SVG Export Plug-In . SVG Version: 6.00 Build 0)  -->
<!DOCTYPE svg PUBLIC "-//W3C//DTD SVG 1.1//EN" "http://www.w3.org/Graphics/SVG/1.1/DTD/svg11.dtd">
<svg version="1.1" id="Layer_1" xmlns="http://www.w3.org/2000/svg" xmlns:xlink="http://www.w3.org/1999/xlink" x="0px" y="0px"
	 viewBox="0 0 16 16" enable-background="new 0 0 16 16" xml:space="preserve">
<path fill="#FFFFFF" d="M13.2,10.5H16V7.7l-1,1c-0.1-0.1-0.2-0.2-0.2-0.3c-1.6-1.6-4.3-1.6-5.9,0s-1.6,4.3,0,5.9s4.3,1.6,5.9,0
	c0,0,0.5-0.6,0.7-1l-0.9-0.4c-0.1,0.2-0.5,0.7-0.5,0.7c-1.2,1.3-3.3,1.3-4.5,0c-1.3-1.2-1.3-3.3,0-4.5c1.2-1.3,3.3-1.3,4.5,0
	c0.1,0.1,0.2,0.2,0.2,0.3L13.2,10.5z"/>
<polygon fill="#FFFFFF" points="15.7,0.4 15.7,4.9 14.3,6.3 14.3,3.6 1.4,3.6 1.4,14.2 6.5,14.2 5.1,15.6 0,15.6 0,3.6 0,0.4 "/>
</svg>
